<svg id="Layer_1" data-name="Layer 1" xmlns="http://www.w3.org/2000/svg" viewBox="0 0 18.32 7.78"><defs><style>.cls-1{fill:#212227;}</style></defs><title>menu-iconUntitled-7</title><path class="cls-1" d="M25.16,10.05c0,.33-.54.6-1.2.6H8c-.66,0-1.2-.27-1.2-.6s.54-.6,1.2-.6H24C24.62,9.45,25.16,9.72,25.16,10.05Z" transform="translate(-6.84 -9.45)"/><path class="cls-1" d="M25.16,13.34c0,.33-.54.6-1.2.6H8c-.66,0-1.2-.27-1.2-.6s.54-.6,1.2-.6H24C24.62,12.74,25.16,13,25.16,13.34Z" transform="translate(-6.84 -9.45)"/><path class="cls-1" d="M25.16,16.63c0,.33-.54.6-1.2.6H8c-.66,0-1.2-.27-1.2-.6S7.38,16,8,16H24C24.62,16,25.16,16.31,25.16,16.63Z" transform="translate(-6.84 -9.45)"/></svg>